# xmcd
#
# Track frame offsets: 
#        150
#        23124
#        43649
#        60123
#        80321
#        98883
#        115508
#        133674
#        155877
#        176965
#        193238
#        212802
#        232133
#
# Disc length: 3408 seconds
#
# Revision: 0
# Processed by: cddbd v1.5.2PL0 Copyright (c) Steve Scherf et al.
# Submitted via: ExactAudioCopyFreeDBPlugin 1.0
#
DISCID=b20d4e0d
DTITLE=Pete Harris and Jon Vaughan - Pay Some Attention
DYEAR=2016
DGENRE=Blues
TTITLE0=Good Morning Blues
TTITLE1=Pay Some Attention
TTITLE2=Get Right Church
TTITLE3=Don't You Lie To Me
TTITLE4=Trouble In Mind
TTITLE5=Don't Go No Further
TTITLE6=Angels Laid Him Away
TTITLE7=They Call Me Lazy
TTITLE8=Write Me A Few Short Lines
TTITLE9=Come Back Baby
TTITLE10=Cocaine Blues
TTITLE11=Big Walter's Boogie
TTITLE12=Baby Please Don't Go
EXTD=
EXTT0=
EXTT1=
EXTT2=
EXTT3=
EXTT4=
EXTT5=
EXTT6=
EXTT7=
EXTT8=
EXTT9=
EXTT10=
EXTT11=
EXTT12=
PLAYORDER=
